<?xml version="1.0" encoding="UTF-8" standalone="no"?>
<!--
  #%L
  tictactoe.server
  %%
  Copyright (C) 2016 - 2018 Frederik Kammel
  %%
  Licensed under the Apache License, Version 2.0 (the "License");
  you may not use this file except in compliance with the License.
  You may obtain a copy of the License at
  
       http://www.apache.org/licenses/LICENSE-2.0
  
  Unless required by applicable law or agreed to in writing, software
  distributed under the License is distributed on an "AS IS" BASIS,
  WITHOUT WARRANTIES OR CONDITIONS OF ANY KIND, either express or implied.
  See the License for the specific language governing permissions and
  limitations under the License.
  #L%
  -->

<!DOCTYPE svg PUBLIC "-//W3C//DTD SVG 1.1//EN" "http://www.w3.org/Graphics/SVG/1.1/DTD/svg11.dtd">
<svg width="100%" height="100%" viewBox="0 0 905 1782" version="1.1" xmlns="http://www.w3.org/2000/svg"  xml:space="preserve"  style="fill-rule:evenodd;clip-rule:evenodd;stroke-linejoin:round;stroke-miterlimit:1.41421;">
    <g transform="matrix(4.16667,0,0,4.16667,-606.808,-142.057)">
        <path d="M254.792,461.58C198.351,461.58 152.595,457.459 152.595,452.376C152.595,447.293 198.351,443.172 254.792,443.172C311.234,443.172 356.99,447.293 356.99,452.376C356.99,457.459 311.234,461.58 254.792,461.58Z" style="fill-opacity:0.101961;fill-rule:nonzero;"/>
    </g>
    <g transform="matrix(4.16667,0,0,4.16667,-606.808,-142.057)">
        <path d="M305.377,295.84L304.699,296.047L305.382,295.859L305.377,295.84L304.699,296.047L305.382,295.859C305.382,295.859 305.303,295.563 305.303,295.105C305.309,294.408 305.464,293.382 306.338,292.251C307.216,291.124 308.887,289.827 312.148,288.839C314.127,288.241 315.88,287.975 317.411,287.975C320.148,287.984 322.158,288.794 323.72,290.185C325.277,291.581 326.4,293.642 327.031,296.247L329.87,295.56C329.139,292.537 327.777,289.903 325.672,288.011C323.572,286.115 320.744,285.044 317.411,285.053C315.541,285.054 313.507,285.377 311.303,286.043C307.634,287.148 305.363,288.745 304.032,290.458C302.697,292.167 302.376,293.927 302.382,295.105C302.382,296.005 302.552,296.591 302.583,296.693L305.377,295.84Z" style="fill:rgb(62,48,48);fill-rule:nonzero;"/>
    </g>
    <g transform="matrix(4.16667,0,0,4.16667,-606.808,-142.057)">
        <path d="M276.621,299.478L350.658,289.041L362.601,341.791C362.601,341.791 335.852,355.502 282.788,353.042L276.621,299.478Z" style="fill:rgb(104,89,87);fill-rule:nonzero;"/>
    </g>
    <g transform="matrix(4.16667,0,0,4.16667,-606.808,-142.057)">
        <path d="M293.331,326.548C293.331,326.548 334.985,323.35 356.906,316.635L356.262,313.791C356.262,313.791 336.974,320.993 292.845,324.154L293.331,326.548Z" style="fill:rgb(85,74,72);fill-rule:nonzero;"/>
    </g>
    <g transform="matrix(4.16667,0,0,4.16667,-606.808,-142.057)">
        <path d="M319.879,318.899L320.791,324.435L339.443,320.987L338.664,316.261L319.879,318.899Z" style="fill:rgb(163,166,167);fill-rule:nonzero;"/>
    </g>
    <g transform="matrix(4.16667,0,0,4.16667,-606.808,-142.057)">
        <path d="M322.535,289.182L322.588,289.014C324.307,281.28 319.879,279.239 319.879,279.239L314.16,229.432L300.283,239.821L302.222,239.132L308.007,278.272C308.007,278.272 300.938,282.157 304.865,289.454L308.569,287.149C308.569,287.149 310.149,288.599 308.923,290.237C308.923,290.237 307.614,289.877 306.894,291.751C306.894,291.751 308.65,294.595 311.633,292.297L311.634,292.297C311.637,292.3 313.945,294.387 316.146,292.314C316.146,292.314 319.995,293.931 322.211,289.931L322.22,289.917L322.222,289.913L322.224,289.907C322.344,289.713 322.434,289.499 322.506,289.275L322.535,289.182Z" style="fill:rgb(249,179,157);fill-rule:nonzero;"/>
    </g>
    <g transform="matrix(4.16667,0,0,4.16667,-606.808,-142.057)">
        <path d="M287.516,297.942L276.621,299.478L282.788,353.042C288.419,353.303 293.734,353.373 298.771,353.306L287.516,297.942Z" style="fill:rgb(85,74,72);fill-rule:nonzero;"/>
    </g>
    <g transform="matrix(4.16667,0,0,4.16667,-606.808,-142.057)">
        <path d="M176.597,202.014L161.232,158.288C161.232,158.288 155.313,159.038 151.213,157.636C151.213,157.636 147.05,154.695 149.446,153.257C149.446,153.257 145.943,152.195 147.5,148.999C147.5,148.999 143.957,145.909 146.635,143.637C146.635,143.637 143.78,140.838 148.641,139.105C153.502,137.373 160.669,138.468 160.669,138.468C160.669,138.468 157.19,130.543 159.905,126.866C162.114,123.873 165.818,138.523 165.818,138.523L190.778,205.181L176.597,202.014Z" style="fill:rgb(249,179,157);fill-rule:nonzero;"/>
    </g>
    <g transform="matrix(4.16667,0,0,4.16667,-606.808,-142.057)">
        <path d="M302.864,243.471C306.874,241.284 310.931,239.172 315.047,237.153L314.16,229.432L300.283,239.821L302.222,239.132L302.864,243.471Z" style="fill:rgb(230,155,135);fill-rule:nonzero;"/>
    </g>
    <g transform="matrix(4.16667,0,0,4.16667,-606.808,-142.057)">
        <path d="M181.239,179.705C178.145,182.629 174.992,185.494 171.776,188.294L176.597,202.013L190.778,205.181L181.239,179.705Z" style="fill:rgb(230,155,135);fill-rule:nonzero;"/>
    </g>
    <g transform="matrix(4.16667,0,0,4.16667,-606.808,-142.057)">
        <path d="M224.904,414.028L228.237,436.111L237.022,436.258L234.554,412.258L224.904,414.028Z" style="fill:rgb(60,107,111);fill-rule:nonzero;"/>
    </g>
    <g transform="matrix(4.16667,0,0,4.16667,-606.808,-142.057)">
        <path d="M277.503,423.018L281.269,445.042L290.055,445.042L287.117,421.086L277.503,423.018Z" style="fill:rgb(60,107,111);fill-rule:nonzero;"/>
    </g>
    <g transform="matrix(4.16667,0,0,4.16667,-606.808,-142.057)">
        <path d="M236.014,426.456L234.554,412.258L224.904,414.028L226.757,426.302C229.512,426.471 232.87,426.647 236.014,426.456Z" style="fill:rgb(42,84,87);fill-rule:nonzero;"/>
    </g>
    <g transform="matrix(4.16667,0,0,4.16667,-606.808,-142.057)">
        <path d="M288.304,430.764L287.117,421.086L277.503,423.018L279.094,432.325C282.099,431.774 285.28,431.438 288.304,430.764Z" style="fill:rgb(42,84,87);fill-rule:nonzero;"/>
    </g>
    <g transform="matrix(4.16667,0,0,4.16667,-606.808,-142.057)">
        <path d="M292.058,425.831L273.374,245.128L272.383,245.216C264.917,229.766 236.114,243.824 224.861,250.086L220.679,249.481C220.097,252.904 206.639,334.308 222.722,422.806C222.722,422.806 231.916,425.765 239.673,420.179C233.251,381.459 233.68,316.581 238.163,285.197C244.634,286.251 247.383,285.37 254.739,284.868C254.739,284.868 270.419,411.616 273.642,427.687C283.525,431.655 292.058,425.831 292.058,425.831Z" style="fill:rgb(0,46,57);fill-rule:nonzero;"/>
    </g>
    <g transform="matrix(4.16667,0,0,4.16667,-606.808,-142.057)">
        <path d="M242.407,262.576L242.021,280.903L247.36,281.215L247.281,285.53L248.337,285.437L249.452,263.524L242.407,262.576Z" style="fill:rgb(0,57,66);fill-rule:nonzero;"/>
    </g>
    <g transform="matrix(4.16667,0,0,4.16667,-606.808,-142.057)">
        <path d="M246.237,128.934L245.736,161.434L267.486,153.404L268.211,119.943L246.237,128.934Z" style="fill:rgb(230,155,135);fill-rule:nonzero;"/>
    </g>
    <g transform="matrix(4.16667,0,0,4.16667,-606.808,-142.057)">
        <path d="M286.561,86.211C282.134,85.028 279.162,88.078 277.367,91.118C276.708,80.206 276.033,70.339 276.033,70.339C276.033,70.339 272.023,58.665 252.4,60.419L234.639,62.006C234.639,62.006 226.82,115.716 230.629,121.791C233.78,126.818 242.517,133.828 251.971,133.034C261.424,132.241 278.612,127.082 278.612,117.559C278.612,115.417 278.481,111.849 278.279,107.608C290.837,109.562 294.725,88.394 286.561,86.211Z" style="fill:rgb(249,179,157);fill-rule:nonzero;"/>
    </g>
    <g transform="matrix(4.16667,0,0,4.16667,-606.808,-142.057)">
        <path d="M285.625,89.696C280.975,88.327 278.922,95.281 278.632,96.369C281.795,97.894 282.759,101.951 280.997,104.293C288.361,104.948 290.559,91.147 285.625,89.696Z" style="fill:rgb(230,155,135);fill-rule:nonzero;"/>
    </g>
    <g transform="matrix(4.16667,0,0,4.16667,-606.808,-142.057)">
        <path d="M278.632,90.312L277.367,96.727L273.67,96.727L273.67,74.704C273.67,74.704 265.721,70.339 266.365,62.403C266.365,62.403 258.415,65.974 250.681,67.165C244.684,68.088 221.677,71.133 222.107,49.903C222.107,49.903 225.95,57.046 231.011,57.641C231.011,57.641 218.669,51.094 227.478,38.991C227.478,38.991 226.38,45.34 231.011,44.745C235.642,44.15 250.467,30.46 263.787,35.023C277.108,39.586 277.367,47.721 277.367,47.721C277.367,47.721 290.858,47.523 291.717,54.665C292.577,61.808 283.452,86.063 283.452,86.063C283.452,86.063 278.632,87.005 278.632,90.312Z" style="fill:rgb(105,59,46);fill-rule:nonzero;"/>
    </g>
    <g transform="matrix(4.16667,0,0,4.16667,-606.808,-142.057)">
        <path d="M253.54,78.544C253.54,78.544 263.97,76.336 266.795,80.952C266.795,80.952 269.837,76.409 265.491,74.603C261.146,72.797 256.303,73.391 254.13,74.112C252.045,74.804 251.005,78.015 253.54,78.544Z" style="fill:rgb(105,59,46);fill-rule:nonzero;"/>
    </g>
    <g transform="matrix(4.16667,0,0,4.16667,-606.808,-142.057)">
        <path d="M244.103,78.561C244.103,78.561 235.037,75.729 232.166,80.161C232.166,80.161 230.387,75.31 234.572,74.289C238.764,73.266 242.988,73.588 244.848,74.336C246.663,75.065 246.283,78.55 244.103,78.561Z" style="fill:rgb(105,59,46);fill-rule:nonzero;"/>
    </g>
    <g transform="matrix(4.16667,0,0,4.16667,-606.808,-142.057)">
        <path d="M259.94,86.572C259.94,88.902 261.074,90.79 262.473,90.79C263.872,90.79 265.006,88.902 265.006,86.572C265.006,84.242 263.872,82.353 262.473,82.353C261.074,82.353 259.94,84.242 259.94,86.572Z" style="fill:rgb(15,21,34);fill-rule:nonzero;"/>
    </g>
    <g transform="matrix(4.16667,0,0,4.16667,-606.808,-142.057)">
        <path d="M239.515,86.572C239.515,88.902 240.649,90.79 242.048,90.79C243.447,90.79 244.581,88.902 244.581,86.572C244.581,84.242 243.447,82.353 242.048,82.353C240.649,82.353 239.515,84.242 239.515,86.572Z" style="fill:rgb(15,21,34);fill-rule:nonzero;"/>
    </g>
    <g transform="matrix(4.16667,0,0,4.16667,-606.808,-142.057)">
        <path d="M248.679,82.353L240.483,104.045L251.524,106.294L248.679,82.353Z" style="fill:rgb(230,155,135);fill-rule:nonzero;"/>
    </g>
    <g transform="matrix(4.16667,0,0,4.16667,-606.808,-142.057)">
        <path d="M242.326,111.474L265.026,108.432C265.026,108.432 262.659,116.897 253.676,118.353C244.693,119.807 242.326,111.474 242.326,111.474Z" style="fill:white;fill-rule:nonzero;"/>
    </g>
    <g transform="matrix(4.16667,0,0,4.16667,-606.808,-142.057)">
        <path d="M215.16,157.24C215.16,157.24 217.585,222.754 220.163,252.382C220.163,252.382 231.074,257.244 253.574,257.151C269.468,257.086 274.171,253.796 274.171,253.796L303.964,151.42C303.964,151.42 289.474,147.78 265.289,146.902L253.676,157.084C253.676,157.084 250.94,148.738 244.986,146.874C235.846,147.174 225.853,147.916 215.16,149.303L215.16,157.24Z" style="fill:white;fill-rule:nonzero;"/>
    </g>
    <g transform="matrix(4.16667,0,0,4.16667,-606.808,-142.057)">
        <path d="M301.509,238.22L287.117,154.572L303.964,151.42L315.834,231.847L301.509,238.22Z" style="fill:white;fill-rule:nonzero;"/>
    </g>
    <g transform="matrix(4.16667,0,0,4.16667,-606.808,-142.057)">
        <path d="M215.16,149.303L189.45,192.159L186.334,186.527C182.25,190.788 178.3,195.175 174.147,199.365C178.562,211.588 183.284,221.812 186.442,220.729C193.962,218.15 218.884,180.453 218.884,180.453L215.16,149.303Z" style="fill:white;fill-rule:nonzero;"/>
    </g>
    <g transform="matrix(4.16667,0,0,4.16667,-606.808,-142.057)">
        <path d="M227.757,255.963C223.182,254.947 220.465,253.951 220.414,253.935C219.077,253.489 218.609,254.609 218.432,255.912C218.199,257.633 217.999,258.371 219.201,258.746C219.421,258.815 222.088,259.913 226.64,261.034C227.015,259.344 227.389,257.654 227.757,255.963Z" style="fill:rgb(104,89,87);fill-rule:nonzero;"/>
    </g>
    <g transform="matrix(4.16667,0,0,4.16667,-606.808,-142.057)">
        <path d="M260.65,257.926C255.532,258.297 249.939,258.293 243.886,258.052C239.218,257.865 235.039,257.332 231.533,256.71C231.611,258.481 231.331,260.229 230.982,261.973C234.552,262.646 238.822,263.213 243.667,263.406C245.639,263.485 247.567,263.524 249.452,263.524C253.673,263.524 257.566,263.373 261.224,263.038C260.855,261.357 260.651,259.656 260.65,257.926Z" style="fill:rgb(104,89,87);fill-rule:nonzero;"/>
    </g>
    <g transform="matrix(4.16667,0,0,4.16667,-606.808,-142.057)">
        <path d="M275.636,257.751C275.403,256.452 275.261,255.299 273.909,255.706C270.88,256.611 267.574,257.232 264.005,257.632C264.092,259.322 264.321,260.998 264.555,262.673C268.261,262.183 271.717,261.46 274.953,260.396C275.895,260.087 275.872,259.063 275.636,257.751Z" style="fill:rgb(104,89,87);fill-rule:nonzero;"/>
    </g>
    <g transform="matrix(4.16667,0,0,4.16667,-606.808,-142.057)">
        <path d="M250.252,263.089L242.407,262.576L242.407,258.365L250.252,258.551L250.252,263.089ZM240.394,257.153L240.394,263.524L252.265,264.301L252.265,257.435L240.394,257.153Z" style="fill:rgb(163,166,167);fill-rule:nonzero;"/>
    </g>
    <g transform="matrix(4.16667,0,0,4.16667,-606.808,-142.057)">
        <path d="M224.427,431.543C224.427,431.543 219.417,437.883 211.81,440.111C204.202,442.339 193.997,446.793 194.554,451.249C194.554,451.249 209.212,455.018 227.581,449.021L227.581,450.906L239.642,450.392L239.642,434.799L229.622,435.484L230.365,433.942L224.427,431.543Z" style="fill:rgb(104,89,87);fill-rule:nonzero;"/>
    </g>
    <g transform="matrix(4.16667,0,0,4.16667,-606.808,-142.057)">
        <path d="M217.087,450.049C203.255,453.572 195.611,450.406 194.648,450.089C194.543,450.474 194.505,450.861 194.553,451.249C194.553,451.249 209.212,455.018 227.581,449.021L227.581,450.906L239.642,450.392L239.642,447.282C235.337,447.535 227.952,447.282 217.087,450.049Z" style="fill:rgb(78,66,66);fill-rule:nonzero;"/>
    </g>
    <g transform="matrix(4.16667,0,0,4.16667,-606.808,-142.057)">
        <path d="M220.402,435.808L220.422,435.816C220.685,435.917 223.307,436.983 225.667,440.407C225.831,440.645 226.156,440.705 226.393,440.541C226.631,440.377 226.691,440.052 226.527,439.815C223.848,435.928 220.817,434.846 220.748,434.822C220.476,434.727 220.178,434.87 220.082,435.142C219.987,435.415 220.13,435.713 220.402,435.808Z" style="fill:rgb(78,66,66);fill-rule:nonzero;"/>
    </g>
    <g transform="matrix(4.16667,0,0,4.16667,-606.808,-142.057)">
        <path d="M217.642,437.015L217.661,437.022C217.925,437.123 220.546,438.189 222.906,441.614C223.07,441.851 223.395,441.911 223.632,441.748C223.87,441.584 223.93,441.259 223.766,441.021C221.087,437.134 218.056,436.053 217.987,436.029C217.715,435.934 217.417,436.077 217.322,436.349C217.226,436.621 217.369,436.919 217.642,437.015Z" style="fill:rgb(78,66,66);fill-rule:nonzero;"/>
    </g>
    <g transform="matrix(4.16667,0,0,4.16667,-606.808,-142.057)">
        <path d="M214.881,438.206L214.9,438.213C215.164,438.315 217.786,439.381 220.145,442.805C220.309,443.043 220.634,443.102 220.872,442.939C221.109,442.775 221.169,442.45 221.005,442.212C218.326,438.325 215.295,437.244 215.227,437.22C214.954,437.125 214.656,437.268 214.561,437.54C214.465,437.812 214.608,438.11 214.881,438.206Z" style="fill:rgb(78,66,66);fill-rule:nonzero;"/>
    </g>
    <g transform="matrix(4.16667,0,0,4.16667,-606.808,-142.057)">
        <path d="M292.718,434.604C292.718,434.604 297.728,440.944 305.336,443.172C312.943,445.4 323.148,449.855 322.592,454.31C322.592,454.31 307.933,458.079 289.564,452.082L289.564,453.967L277.503,453.453L277.503,437.86L287.523,438.546L286.781,437.003L292.718,434.604Z" style="fill:rgb(104,89,87);fill-rule:nonzero;"/>
    </g>
    <g transform="matrix(4.16667,0,0,4.16667,-606.808,-142.057)">
        <path d="M300.058,453.11C313.891,456.633 321.535,453.467 322.497,453.15C322.602,453.535 322.64,453.922 322.592,454.31C322.592,454.31 307.933,458.079 289.564,452.082L289.564,453.967L277.503,453.453L277.503,450.343C281.808,450.596 289.193,450.343 300.058,453.11Z" style="fill:rgb(78,66,66);fill-rule:nonzero;"/>
    </g>
    <g transform="matrix(4.16667,0,0,4.16667,-606.808,-142.057)">
        <path d="M296.397,437.884C296.328,437.907 293.297,438.989 290.618,442.876C290.454,443.113 290.514,443.438 290.752,443.602C290.989,443.766 291.315,443.706 291.478,443.468C292.738,441.641 294.069,440.487 295.08,439.791C295.585,439.442 296.009,439.209 296.303,439.064C296.45,438.992 296.565,438.941 296.64,438.91L296.723,438.877L296.743,438.869C297.015,438.774 297.158,438.476 297.063,438.203C296.967,437.931 296.669,437.788 296.397,437.884Z" style="fill:rgb(78,66,66);fill-rule:nonzero;"/>
    </g>
    <g transform="matrix(4.16667,0,0,4.16667,-606.808,-142.057)">
        <path d="M299.158,439.09C299.089,439.114 296.058,440.195 293.379,444.082C293.215,444.32 293.275,444.645 293.513,444.809C293.75,444.972 294.075,444.912 294.239,444.675C295.499,442.848 296.83,441.694 297.841,440.997C298.346,440.649 298.77,440.415 299.064,440.271C299.211,440.198 299.326,440.148 299.401,440.116L299.484,440.083L299.504,440.076C299.776,439.98 299.919,439.682 299.824,439.41C299.728,439.138 299.43,438.995 299.158,439.09Z" style="fill:rgb(78,66,66);fill-rule:nonzero;"/>
    </g>
    <g transform="matrix(4.16667,0,0,4.16667,-606.808,-142.057)">
        <path d="M301.919,440.281C301.85,440.305 298.819,441.386 296.14,445.273C295.976,445.511 296.036,445.836 296.273,446C296.511,446.164 296.836,446.104 297,445.866C298.259,444.039 299.591,442.885 300.601,442.188C301.106,441.84 301.531,441.607 301.825,441.462C301.972,441.389 302.086,441.339 302.162,441.308L302.245,441.274L302.265,441.267C302.537,441.172 302.68,440.873 302.584,440.601C302.489,440.329 302.191,440.186 301.919,440.281Z" style="fill:rgb(78,66,66);fill-rule:nonzero;"/>
    </g>
    <g transform="matrix(4.16667,0,0,4.16667,-606.808,-142.057)">
        <path d="M253.676,157.084L256.972,146.874L263.312,150.132L253.676,157.084Z" style="fill:rgb(214,194,192);fill-rule:nonzero;"/>
    </g>
    <g transform="matrix(4.16667,0,0,4.16667,-606.808,-142.057)">
        <path d="M253.2,147.631L253.676,157.084L248.645,150.215L253.2,147.631Z" style="fill:rgb(214,194,192);fill-rule:nonzero;"/>
    </g>
    <g transform="matrix(4.16667,0,0,4.16667,-606.808,-142.057)">
        <path d="M238.664,146.463L246.158,157.636L253.2,147.631L242.997,140.127L238.664,146.463Z" style="fill:rgb(237,219,213);fill-rule:nonzero;"/>
    </g>
    <g transform="matrix(4.16667,0,0,4.16667,-606.808,-142.057)">
        <path d="M272.615,146.288L262.138,157.636L256.972,146.874L268.83,139.659L272.615,146.288Z" style="fill:rgb(237,219,213);fill-rule:nonzero;"/>
    </g>
    <g transform="matrix(4.16667,0,0,4.16667,-606.808,-142.057)">
        <path d="M258.738,150.551C258.738,150.551 255.409,151.217 251.145,150.551L249.089,153.472L251.16,159.431L236.82,231.783L244.482,241.593L254.652,233.535L256.405,160.202L259.911,152.994L258.738,150.551Z" style="fill:rgb(205,103,103);fill-rule:nonzero;"/>
    </g>
    <g transform="matrix(4.16667,0,0,4.16667,-606.808,-142.057)">
        <path d="M261.881,180.758L288.593,182.766C288.593,182.766 287.373,206.736 272.615,205.101C254.5,203.093 261.881,180.758 261.881,180.758Z" style="fill:rgb(237,219,213);fill-rule:nonzero;"/>
    </g>
    <g transform="matrix(4.16667,0,0,4.16667,-606.808,-142.057)">
        <path d="M281.957,182.267C281.957,182.267 282.704,171.138 284.516,170.971C286.328,170.803 285.219,190.713 283.237,191.047C283.237,191.047 282.874,188.136 283.695,182.398L281.957,182.267Z" style="fill:rgb(205,103,103);fill-rule:nonzero;"/>
    </g>
    <g transform="matrix(4.16667,0,0,4.16667,-606.808,-142.057)">
        <clipPath id="_clip1">
            <path d="M258.738,150.551C258.738,150.551 255.409,151.217 251.145,150.551L249.088,153.472L251.16,159.431L236.82,231.783L244.482,241.593L254.652,233.535L256.405,160.202L259.911,152.994L258.738,150.551Z"/>
        </clipPath>
        <g clip-path="url(#_clip1)">
            <path d="M233.289,165.646L231.692,161.701L268.533,148.977L270.129,152.921L233.289,165.646Z" style="fill:rgb(143,70,72);fill-rule:nonzero;"/>
            <path d="M233.289,176.031L231.692,172.086L268.533,159.361L270.129,163.306L233.289,176.031Z" style="fill:rgb(143,70,72);fill-rule:nonzero;"/>
            <path d="M233.289,186.415L231.692,182.471L268.533,169.746L270.129,173.691L233.289,186.415Z" style="fill:rgb(143,70,72);fill-rule:nonzero;"/>
            <path d="M233.289,196.8L231.692,192.855L268.533,180.131L270.129,184.076L233.289,196.8Z" style="fill:rgb(143,70,72);fill-rule:nonzero;"/>
            <path d="M233.289,207.186L231.692,203.241L268.533,190.516L270.129,194.461L233.289,207.186Z" style="fill:rgb(143,70,72);fill-rule:nonzero;"/>
            <path d="M233.289,217.57L231.692,213.626L268.533,200.901L270.129,204.846L233.289,217.57Z" style="fill:rgb(143,70,72);fill-rule:nonzero;"/>
            <path d="M233.289,227.955L231.692,224.01L268.533,211.286L270.129,215.231L233.289,227.955Z" style="fill:rgb(143,70,72);fill-rule:nonzero;"/>
            <path d="M233.289,238.34L231.692,234.395L268.533,221.671L270.129,225.616L233.289,238.34Z" style="fill:rgb(143,70,72);fill-rule:nonzero;"/>
        </g>
    </g>
    <g transform="matrix(4.16667,0,0,4.16667,-606.808,-142.057)">
        <path d="M296.474,228.44L316.855,222.565L318.486,233.208L299.463,239.977L296.474,228.44Z" style="fill:rgb(237,219,213);fill-rule:nonzero;"/>
    </g>
    <g transform="matrix(4.16667,0,0,4.16667,-606.808,-142.057)">
        <path d="M184.238,182.766L189.45,190.904C189.45,190.904 181.793,207.359 175.814,211.124L169.835,196.945L184.238,182.766Z" style="fill:rgb(237,219,213);fill-rule:nonzero;"/>
    </g>
</svg>
